<svg xmlns="http://www.w3.org/2000/svg" xmlns:xlink="http://www.w3.org/1999/xlink" viewBox="0 0 4680 3120"><defs><style>.cls-1{fill:none;}.cls-2{fill:#5899c4;}.cls-3{fill:#fcc0a9;}.cls-4{fill:#f26f21;}.cls-5{fill:#ef3030;}.cls-6{fill:#333;}.cls-7{fill:#9cd6fc;}.cls-8{fill:#1a1a1a;}.cls-9{opacity:0.6;}.cls-10{clip-path:url(#clip-path);}.cls-11{fill:#fff;}.cls-12{opacity:0.5;}.cls-13{clip-path:url(#clip-path-2);}.cls-14{clip-path:url(#clip-path-3);}.cls-15{clip-path:url(#clip-path-4);}.cls-16{fill:#006837;}.cls-17{clip-path:url(#clip-path-5);}.cls-18{fill:#666;}.cls-19{fill:#78b7fb;}.cls-20{clip-path:url(#clip-path-6);}.cls-21{opacity:0.3;}.cls-22{fill:#f2f2f2;}.cls-23{fill:#4d4d4d;}.cls-24{clip-path:url(#clip-path-7);}.cls-25{fill:#d42b2b;}.cls-26{fill:#fc9a74;}.cls-27{opacity:0.15;}.cls-28{clip-path:url(#clip-path-8);}.cls-29{clip-path:url(#clip-path-9);}.cls-30{clip-path:url(#clip-path-10);}.cls-31{clip-path:url(#clip-path-11);}.cls-32{fill:#ef4444;}.cls-33{clip-path:url(#clip-path-12);}.cls-34{clip-path:url(#clip-path-13);}.cls-35{clip-path:url(#clip-path-14);}.cls-36{clip-path:url(#clip-path-15);}.cls-37{clip-path:url(#clip-path-16);}.cls-38{opacity:0.07;}.cls-39{clip-path:url(#clip-path-17);}.cls-40{fill:#ccc;}.cls-41{fill:#3c98fb;}</style><clipPath id="clip-path"><rect class="cls-1" x="623.95" y="-2573.65" width="2926.82" height="1873.14"/></clipPath><clipPath id="clip-path-2"><path class="cls-2" d="M2371,2571.22c34.88,14.73,76.09,44.55,104.45-32.37,83-225.1,501.5,36.92,702.09-94.69,125.14-82.1,170.46-245.28,279.63-347.68,84.55-79.3,200.3-115.71,294.92-182.69,136-96.29,224.4-268,193.94-431.8-11.23-60.41-43.09-123-100.58-144.67-58.09-21.91-121.74,3.94-182.39,17.19-215.31,47-462.95-64.15-649.61,53-76.42,48-128.92,128.21-207.1,173.26-104.6,60.27-242.36,50.26-337.61,124.42-113,88-119.33,251.89-149,392-17.75,83.79-47.25,165.92-50.2,251.51S2297,2528.15,2371,2571.22Z"/></clipPath><clipPath id="clip-path-3"><path class="cls-2" d="M2445.37,2282.45c12.56-24.61,36.44-53-18.06-77.74-159.49-72.24,53.28-363.1-32-516-53.17-95.41-169.56-137-238.35-221.85-53.28-65.72-73.69-151.88-117.46-224.29-62.92-104.09-183.22-177.45-304.1-163.9-44.56,5-91.79,24.89-110.59,65.59-19,41.14-3.54,88.82,2.91,133.67,22.89,159.2-71.07,333.61,4.39,475.64,30.89,58.15,86.53,100.6,115.21,159.88,38.36,79.31,23.82,179.06,72.79,252.3,58.09,86.89,177.07,100.12,277.49,129.1,60.06,17.34,118.28,43.13,180.44,49.79s132-10.53,167.29-62.15Z"/></clipPath><clipPath id="clip-path-4"><path class="cls-7" d="M1921.36,2490.57c-101.69-140.67-189.36-233-319.23-289.63s-268.5-96.31-387.17-173.73a708.31,708.31,0,0,1-250.44-285.86c-45-94.09-68.19-206-28.19-302.36,40.72-98,138.51-160.71,237.88-198.09,88.7-33.37,189.31-51.14,277.26-15.83,183.35,73.63,220.67,328.48,383.74,440.05,88,60.24,203.19,71.33,289.4,134.19,76.27,55.61,120.17,144.57,155.56,232.08,45.14,111.62,81.65,234,54,351.2s-141,221.55-259.35,199.17c-59.24-11.2-108.82-50.63-153.43-91.19"/></clipPath><clipPath id="clip-path-5"><path class="cls-7" d="M2779.7,1932.65c41-146,85.09-248.05,174.52-333.61s191.13-159.82,265.12-259a618.61,618.61,0,0,0,119.25-309.79c8.57-90.71-6.13-189.47-67.94-256.4-62.91-68.14-162-90.06-254.69-90.78-82.78-.65-170.63,15.08-232.1,70.52-128.15,115.58-82,335.77-182.11,476.36-54.05,75.91-145.12,119.68-196.87,197.17-45.79,68.57-55,154.73-57.66,237.14-3.39,105.11,3.53,216.46,61.51,304.2s182.37,139.18,272.63,85.2c45.19-27,74-74.29,98.34-121"/></clipPath><clipPath id="clip-path-6"><path class="cls-8" d="M3357.56,2115.81l-49.68-13.15c-5.51-1.45-5.18-7,.74-12.32l125.85-113.75c5.91-5.35,15.18-8.5,20.69-7l49.69,13.14c5.51,1.46,5.18,7-.74,12.32l-125.85,113.75C3372.34,2114.11,3363.07,2117.26,3357.56,2115.81Z"/></clipPath><clipPath id="clip-path-7"><path class="cls-3" d="M3020.41,1951.37c105.94,260.22,83,323.15,267.53,306.6s185.14,122.64,155.91,126.64-73.27-40.65-109.39-60.53c-44.89-24.71-224.2,88.84-272,5.1s-102.83-213.47-126.19-264.8-23.53-99.08,6.84-118.79S3007.63,1920,3020.41,1951.37Z"/></clipPath><clipPath id="clip-path-8"><path class="cls-5" d="M2949.2,1885.73c102.49-17.83,104.45,120.31,67.61,192.21-43.93,85.74-43.93,152-16,233.57-208.84,38.69-274.51,35.6-303.18,45.08C2725.84,1995.69,2796.09,1917.64,2949.2,1885.73Z"/></clipPath><clipPath id="clip-path-9"><path class="cls-6" d="M2699.35,2342.29c-57.78,272.71-5.78,359.87,158.71,283,201.93-94.37,197.23-175.57,263.3-119.3s183.52,149.08,234,129.23,48.67-98,26.41-120.45c-186.29-99.13-168.07-233-288.3-211.06S2890.49,2386,2890.49,2386l-8.55-52.38Z"/></clipPath><clipPath id="clip-path-10"><path class="cls-3" d="M2902.57,2021.06c133.36,349,116.34,308.08,326.3,127.46,4.93-39.07,57-70.14,84.63-75.63s7.77,22.88,7.77,22.88,38.21,6.83,80.42-12.42,43.76,43.84-83.23,90.53-275.11,369.82-397.18,163-150-278-119.78-320.83S2879.58,1960.89,2902.57,2021.06Z"/></clipPath><clipPath id="clip-path-11"><path class="cls-3" d="M3091.6,1692.16c-105.44,1.53-111.95,89.82-84.55,143.46s60.26,55.43,85.51,43,60.93-111.56,45-152.37S3091.6,1692.16,3091.6,1692.16Z"/></clipPath><clipPath id="clip-path-12"><path class="cls-4" d="M1757,795.85C1954,902,2104.93,1103.51,2039.42,1207s-303.61,153.75-359.37,155.28c-61.32,1.69,87.7-90.86,200.34-158.06S1811.22,1047.53,1773,996.69,1757,795.85,1757,795.85Z"/></clipPath><clipPath id="clip-path-13"><path class="cls-5" d="M1346.12,846.39h82.49c9.15,0,15.28-7.59,13.68-17l-34-199.16c-1.6-9.37-10.31-17-19.46-17h-82.49c-9.15,0-15.27,7.59-13.68,17l34,199.16C1328.26,838.8,1337,846.39,1346.12,846.39Z"/></clipPath><clipPath id="clip-path-14"><path class="cls-4" d="M1594.88,807c-131.19,28-224.44,250.56-276.42,289.56s-39.7,196.05,29.32,158.15,231.16-216,247.1-295.92S1594.88,807,1594.88,807Z"/></clipPath><clipPath id="clip-path-15"><path class="cls-3" d="M1299.67,869.51c-51.06,164.06-66.41,441.6,34.32,394.21s-8.52-214.31,24.91-342.88,101.86-190.21,21.56-199.66S1299.67,869.51,1299.67,869.51Z"/></clipPath><clipPath id="clip-path-16"><path class="cls-4" d="M1583.51,811.38c-87.16,27-129.81,392.82-129.81,392.82l363.78-9.11s69.31-385.57-70.52-399.24S1583.51,811.38,1583.51,811.38Z"/></clipPath><clipPath id="clip-path-17"><path class="cls-6" d="M1475.22,1204.2c-69.61,615.85-125.66,1212.36-121.47,1265.68-148,25.56-154.41,37.26-157.45,144.11h309.92s21.5-117.19,6.34-159.16c25.36-219.93,78-845.32,78-845.32l22.16,860.94s-17.92,96.17-15.22,143.54h315.75s31.91-137.07-118.67-159.16c-37.6-124.21,3.78-1259.74,3.78-1259.74Z"/></clipPath></defs><title>05</title><g id="_2" data-name="2"><g class="cls-9"><g class="cls-10"><path class="cls-7" d="M2688.19,113.15q-.69-32.9-.87-65.76t-.16-65.72l.13-65.68.16-32.84.24-32.83.62-65.64c.14-21.88.45-43.75.7-65.63l1.8-131.21,1.22-65.59q.51-32.79,1.27-65.57l3.45-131.13,1-32.78c.33-10.93.7-21.85.93-32.78l1.54-65.57c.47-21.85,1.08-43.71,1.25-65.57l.7-65.57c.29-21.86.21-43.72.22-65.57v-65.57l-.66-65.56-.34-32.78-.72-32.76-.63-32.77-.32-16.39c-.1-5.46-.2-10.92-.4-16.38l-2.14-65.49c-.19-5.46-.33-10.93-.57-16.38l-.78-16.36-1.57-32.72-.78-16.36-.39-8.18-.2-4.09-.27-4.08-2.15-32.67-2.1-32.69c-.15-2.72-.4-5.44-.63-8.15l-.7-8.15-1.4-16.31-2.79-32.61-.36-4.08-.45-4.06-.91-8.12-1.82-16.25-3.67-32.51-4.13-32.58-8.13-65.17q-8-65.19-15.6-130.44-3.74-32.62-7.23-65.29-1.74-16.34-3.39-32.67c-1.07-10.91-2.15-21.78-3-32.77a2,2,0,0,1,1.81-2.12,2,2,0,0,1,2.12,1.75v0c1.2,10.81,2.64,21.68,4.08,32.51s3,21.67,4.47,32.51q4.6,32.49,9.43,65,9.54,64.93,19.55,129.82l10,64.88,5,32.44,4.6,32.62,2.29,16.32,1.14,8.17.57,4.08.47,4.09,3.72,32.72,1.86,16.36.93,8.18c.31,2.73.64,5.46.86,8.19l3,32.77,3,32.79.37,4.1.3,4.1.6,8.2,1.19,16.41L2718-1364l1.19,16.41c.38,5.47.65,10.94,1,16.42l3.78,65.68c.34,5.47.57,11,.81,16.42l.72,16.43,1.46,32.85,1.38,32.86,1,32.86,2,65.74,1.34,65.73c.43,21.91,1,43.83,1.11,65.74l.8,65.74c.1,11,.38,21.91.41,32.87l.23,32.87.56,65.74c.13,11,.07,21.91.09,32.87v32.87q-.08,32.86-.28,65.73c-.25,21.91-.67,43.82-1.13,65.72s-1,43.8-1.65,65.7-1.62,43.79-2.49,65.68l-2.9,65.65c-.49,10.95-1.12,21.88-1.7,32.82l-1.81,32.81c-1.28,21.87-2.49,43.74-3.88,65.61-.69,10.93-1.3,21.86-2.09,32.79l-2.33,32.78-2.42,32.77L2710.64-83,2708-50.28c-.87,10.92-1.88,21.83-2.84,32.75q-3,32.73-6.17,65.46t-6.89,65.41a2,2,0,0,1-3.94-.18Z"/></g></g></g><g id="_5" data-name="5"><rect class="cls-11" width="4680" height="3120"/><g class="cls-12"><path class="cls-2" d="M2371,2571.22c34.88,14.73,76.09,44.55,104.45-32.37,83-225.1,501.5,36.92,702.09-94.69,125.14-82.1,170.46-245.28,279.63-347.68,84.55-79.3,200.3-115.71,294.92-182.69,136-96.29,224.4-268,193.94-431.8-11.23-60.41-43.09-123-100.58-144.67-58.09-21.91-121.74,3.94-182.39,17.19-215.31,47-462.95-64.15-649.61,53-76.42,48-128.92,128.21-207.1,173.26-104.6,60.27-242.36,50.26-337.61,124.42-113,88-119.33,251.89-149,392-17.75,83.79-47.25,165.92-50.2,251.51S2297,2528.15,2371,2571.22Z"/><g class="cls-13"><path class="cls-7" d="M2189.5,2574.27c15-7.75,30.1-15.28,44.67-23.54a425.61,425.61,0,0,0,42-27,522.14,522.14,0,0,0,74-66.08q17-18.12,32.66-37.4t30.51-39.31q14.74-20.1,29-40.68c9.48-13.72,18.73-27.65,28-41.59l27.81-42c9.31-14.08,18.76-28.17,28.42-42.15,19.35-27.95,39.54-55.6,61.49-82.18s45.57-52.14,71.68-75.54a509.3,509.3,0,0,1,41.07-33.16,438.18,438.18,0,0,1,45-28.51,385.17,385.17,0,0,1,48.62-22.47c4.19-1.54,8.37-3.14,12.58-4.6l12.71-4.07,3.17-1,3.2-.9,6.4-1.77,6.39-1.76c2.13-.61,4.28-1,6.42-1.57,34.27-8.35,68.71-12.9,102.65-16.26s67.49-5.52,100.48-8.8c16.51-1.6,32.8-3.59,49.12-6,4.07-.63,8.16-1.17,12.22-1.87l12.19-2,12.16-2.24c4.06-.71,8.09-1.59,12.14-2.38,64.63-13,128-33.27,187.59-62.11,14.91-7.2,29.53-15,43.9-23.33s28.33-17.37,42-26.85l5.12-3.59,2.56-1.8,2.51-1.86,10.05-7.47,9.88-7.72c3.3-2.57,6.46-5.31,9.71-8,12.88-10.72,25.28-22.08,37.34-33.9a463.44,463.44,0,0,1-32.56,39l-4.38,4.62c-1.47,1.53-2.91,3.1-4.43,4.58l-9.05,9c-6.16,5.86-12.4,11.67-18.86,17.24-12.83,11.23-26.26,21.81-40.12,31.84s-28.28,19.28-43,28.11a674.07,674.07,0,0,1-92.27,45.49,783.46,783.46,0,0,1-97.94,32c-4.17,1-8.32,2.16-12.51,3.12l-12.56,2.93-12.61,2.7c-4.2.92-8.43,1.68-12.64,2.53-16.87,3.22-33.91,6-50.85,8.29s-33.82,4.3-50.57,6.13l-25,2.81-12.46,1.4-12.38,1.5c-16.46,2.1-32.85,4.17-48.92,7s-32,5.83-47.52,10c-1.94.5-3.92.92-5.83,1.49l-5.76,1.64-5.76,1.64-2.88.83-2.82.93-11.31,3.72c-3.73,1.33-7.4,2.79-11.1,4.17a342.38,342.38,0,0,0-42.93,20,399.25,399.25,0,0,0-40.36,25.42c-13,9.25-25.58,19.31-37.75,29.92-24.32,21.25-46.94,44.85-68.46,69.69s-41.93,51-61.87,77.71c-10,13.36-19.84,26.85-29.71,40.44s-19.8,27.26-29.88,40.85-20.32,27.12-30.76,40.53-21.1,26.72-32.18,39.71-22.37,25.82-34.22,38.2-24,24.42-36.8,35.89-26,22.42-39.8,32.59a440.94,440.94,0,0,1-43,28.14,385.51,385.51,0,0,1-45.93,22.49C2221.46,2563.37,2205.52,2568.94,2189.5,2574.27Z"/></g></g><g class="cls-12"><path class="cls-2" d="M2445.37,2282.45c12.56-24.61,36.44-53-18.06-77.74-159.49-72.24,53.28-363.1-32-516-53.17-95.41-169.56-137-238.35-221.85-53.28-65.72-73.69-151.88-117.46-224.29-62.92-104.09-183.22-177.45-304.1-163.9-44.56,5-91.79,24.89-110.59,65.59-19,41.14-3.54,88.82,2.91,133.67,22.89,159.2-71.07,333.61,4.39,475.64,30.89,58.15,86.53,100.6,115.21,159.88,38.36,79.31,23.82,179.06,72.79,252.3,58.09,86.89,177.07,100.12,277.49,129.1,60.06,17.34,118.28,43.13,180.44,49.79s132-10.53,167.29-62.15Z"/><g class="cls-14"><path class="cls-2" d="M2438,2414.74c-4.92-14.5-9.84-29-15.91-43.08-38.13-88.25-117.45-150.53-192.28-210.9S2078.23,2033.18,2049,1941.58c-20.08-63-15.29-130.79-19.07-196.82-6.83-119.27-45.36-241-129.77-325.6"/><path class="cls-11" d="M2427.39,2418.34c-4.76-14-9.68-28.57-15.58-42.22-36-83.25-110.58-143.39-182.74-201.56l-6.28-5c-76.9-62-154.48-130.47-184.46-224.51-15.43-48.4-16.65-99.52-17.82-149-.4-16.66-.81-33.9-1.77-50.63-7.5-131.06-52.43-244.11-126.5-318.31l15.9-15.88c41.21,41.28,73.69,93,96.55,153.76,20.53,54.59,32.81,114.86,36.49,179.14,1,17.11,1.39,34.54,1.8,51.39,1.13,47.85,2.31,97.33,16.76,142.66,28.09,88.11,102.92,154,177.16,213.84l6.27,5.06c74.29,59.87,151.1,121.79,189.27,210.14,6.26,14.49,11.33,29.45,16.24,43.92Z"/></g></g><g class="cls-12"><path class="cls-7" d="M1921.36,2490.57c-101.69-140.67-189.36-233-319.23-289.63s-268.5-96.31-387.17-173.73a708.31,708.31,0,0,1-250.44-285.86c-45-94.09-68.19-206-28.19-302.36,40.72-98,138.51-160.71,237.88-198.09,88.7-33.37,189.31-51.14,277.26-15.83,183.35,73.63,220.67,328.48,383.74,440.05,88,60.24,203.19,71.33,289.4,134.19,76.27,55.61,120.17,144.57,155.56,232.08,45.14,111.62,81.65,234,54,351.2s-141,221.55-259.35,199.17c-59.24-11.2-108.82-50.63-153.43-91.19"/><g class="cls-15"><path class="cls-2" d="M1294.6,1521.23a784.22,784.22,0,0,0,64.25,77c11.53,12,23.31,23.69,35.49,34.94s24.55,22.24,37.31,32.78c25.49,21.11,51.94,41,79.09,59.92s55,36.95,83.24,54.47c56.5,35,114.53,68.16,172.42,102.52s115.68,69.93,171.22,109.86q20.81,15,41.13,30.82t39.89,32.74c13,11.28,25.85,22.87,38.28,34.87,3.15,2.95,6.18,6,9.25,9.06l9.17,9.13,9,9.31c3,3.12,6,6.2,8.88,9.4,5.82,6.35,11.71,12.63,17.35,19.13l8.51,9.7,8.32,9.85c5.59,6.53,11,13.24,16.34,19.91,2.73,3.32,5.31,6.74,8,10.11l7.88,10.16q31.1,41,58.53,84.17c18.35,28.74,35.44,58.15,51.64,88s31.43,60,45.85,90.62l5.37,11.47,5.29,11.51q5.3,11.49,10.42,23.07l10.14,23.18q5,11.61,9.87,23.28c13,31.09,25.47,62.39,37.13,94-17.4-28.88-34.31-58-51.33-86.93l-12.78-21.69L2316.84,2526c-8.61-14.38-17.13-28.79-25.92-43-34.76-57.13-71-113.09-109.9-166.59-19.53-26.7-39.73-52.8-60.8-78l-8-9.4c-2.67-3.12-5.29-6.28-8-9.34-5.46-6.13-10.77-12.39-16.34-18.4l-8.27-9.09-8.42-8.93c-5.55-6-11.33-11.81-17-17.67-2.82-2.95-5.77-5.78-8.68-8.65l-8.71-8.61-8.88-8.42c-3-2.8-5.89-5.64-8.93-8.35q-18-16.57-36.76-32.29t-38.28-30.75q-19.47-15.06-39.55-29.45c-53.5-38.51-109.61-74.23-166.18-110.1s-113.66-71.92-169-111.31c-27.66-19.68-54.82-40.24-81.09-62a961.83,961.83,0,0,1-75.41-69.2c-11.85-12.29-23.41-24.86-34.43-37.88s-21.62-26.37-31.58-40.17A559.3,559.3,0,0,1,1294.6,1521.23Z"/><path class="cls-2" d="M1610.33,1821.24a135.38,135.38,0,0,0-28.31-2.16,194.38,194.38,0,0,0-26.87,2.89c-8.85,1.55-17.62,3.46-26.5,5.6s-17.9,4.42-26.82,6.66c-17.9,4.58-35.83,9.24-54.08,13.7s-36.78,8.68-55.77,12.17a510.8,510.8,0,0,1-58.26,7.51,341.2,341.2,0,0,1-60.08-1.27,247.32,247.32,0,0,1-59-14.12,186.55,186.55,0,0,1-27.28-13.22,138.33,138.33,0,0,1-24.09-17.86c10,1,19.45,2.23,28.92,2.68,9.37.73,18.69.8,27.8.91,18.33-.12,36.26-1.37,54.11-3.22,17.87-2,35.64-4.62,53.46-7.62s35.87-6.51,54.18-9.81,37-6.58,56-9.17a533.73,533.73,0,0,1,58.16-5c2.45-.08,4.93-.09,7.4-.1s4.92,0,7.4,0c5,.13,9.87.2,14.91.52a214,214,0,0,1,30.34,3.75,132.1,132.1,0,0,1,29.54,9.51C1594.85,1808.08,1603.53,1813.91,1610.33,1821.24Z"/><path class="cls-16" d="M1724.16,1883.51c-1.93-2.45-3.76-5-5.6-7.52s-3.4-5.25-5-7.92-3.06-5.47-4.57-8.23-2.77-5.63-4.13-8.47a235.11,235.11,0,0,1-12.6-35.49c-6.59-24.22-9.91-48.91-12.42-73.21s-4.09-48.37-6.6-72.2c-1.25-11.93-2.77-23.8-4.72-35.69l-1.55-8.92c-.57-3-1.2-5.94-1.73-8.95s-1.3-6-1.93-9-1.43-6-2-9.07c1.86,2.5,3.62,5.08,5.39,7.67s3.26,5.33,4.84,8,2.92,5.53,4.37,8.32,2.63,5.69,3.94,8.56a245,245,0,0,1,12,35.64c6.25,24.26,9.42,48.91,11.9,73.16s4.2,48.26,7,72c1.4,11.88,3.13,23.7,5.34,35.54l1.75,8.87c.64,3,1.34,5.9,2,8.9s1.46,5.92,2.17,8.92S1723.45,1880.44,1724.16,1883.51Z"/><path class="cls-2" d="M1899.11,1999.62c-7.41,3-14.76,5.38-22.07,7.68s-14.58,4.27-21.82,6.16-14.46,3.63-21.65,5.25-14.36,3.15-21.52,4.58c-14.31,2.88-28.57,5.35-42.82,7.57-3.56.59-7.12,1.09-10.68,1.62s-7.11,1-10.7,1.53-7.21.94-10.83,1.43l-11,1.27a434.3,434.3,0,0,1-45.1,2.74,269.55,269.55,0,0,1-46.7-3.57,196.68,196.68,0,0,1-23.35-5.4,160.35,160.35,0,0,1-22.6-8.5,133.1,133.1,0,0,1-20.85-12.11,95.89,95.89,0,0,1-17.69-16.08c8,.45,15.53.92,22.91,1s14.54.06,21.6-.21c14.1-.54,27.82-2,41.54-3.56s27.48-3.62,41.45-5.55,28.19-3.89,42.73-5.42l11-1.08c3.69-.29,7.38-.64,11.11-.88,7.46-.51,15-.89,22.52-1a408.65,408.65,0,0,1,45.19,1.56,351.7,351.7,0,0,1,45,6.93q11.19,2.48,22.29,5.86A193.06,193.06,0,0,1,1899.11,1999.62Z"/><path class="cls-16" d="M2028.06,2101a91,91,0,0,1-11.64-18.12,131,131,0,0,1-7.57-20.46,195.46,195.46,0,0,1-4.38-21.31c-.51-3.55-1-7.14-1.33-10.7s-.74-7.12-1-10.67l-.71-10.58-.56-10.5-.53-10.37c-.22-3.43-.43-6.86-.61-10.28-.92-13.7-2-27.37-3.45-41s-3.16-27.24-5.14-40.83-4.3-27.15-6.74-40.73-5.29-27.14-8.16-40.78l-2.24-10.23c-.67-3.44-1.53-6.83-2.26-10.26-1.45-6.89-3.13-13.71-4.46-20.73,3.81,6,7.45,12.12,10.72,18.41,3.42,6.25,6.39,12.68,9.42,19.13a400,400,0,0,1,15.23,39.86,419,419,0,0,1,10.86,41.36c2.89,14,5,28.11,6.58,42.3s2.21,28.49,2.31,42.76c0,7.14-.12,14.29-.44,21.33s-.72,14-1.06,20.91l-.49,10.32c-.08,1.72-.14,3.43-.17,5.13l-.16,5.13c-.11,6.82,0,13.61.29,20.41a190.21,190.21,0,0,0,2.33,20.31A162.1,162.1,0,0,0,2028.06,2101Z"/><path class="cls-2" d="M2186.58,2280.56c-7.83,3.33-15.67,5.93-23.52,8.39s-15.7,4.55-23.56,6.48c-15.71,3.84-31.44,6.92-47.19,9.34-7.87,1.24-15.73,2.27-23.65,3.21-4,.42-7.94.91-11.95,1.24l-6,.54-6,.42c-8.1.54-16.26.86-24.52.89-4.12.06-8.29-.09-12.44-.15-2.08-.06-4.17-.19-6.26-.28s-4.19-.22-6.29-.37a256.52,256.52,0,0,1-50.62-8.5c-4.19-1.25-8.35-2.4-12.53-3.95l-3.13-1.09c-1-.36-2.08-.73-3.1-1.17l-6.14-2.49a179.48,179.48,0,0,1-23.54-12.17l-2.82-1.72-2.76-1.86c-1.83-1.25-3.66-2.47-5.46-3.76-3.52-2.72-7.06-5.3-10.36-8.29-3.38-2.82-6.52-6-9.62-9.09-.79-.76-1.51-1.61-2.26-2.42s-1.47-1.64-2.2-2.48l-2.16-2.48c-.71-.83-1.38-1.72-2.06-2.59-1.33-1.76-2.68-3.47-4-5.24s-2.45-3.65-3.62-5.49c-.57-.94-1.2-1.81-1.72-2.78l-1.59-2.87c-.51-1-1-1.9-1.54-2.86s-1-1.91-1.44-2.91c-.89-2-1.77-4-2.58-5.95-.43-1-.77-2-1.12-3s-.7-2-1-3l-1-3.05c-.31-1-.53-2.07-.76-3.11-.46-2.1-.9-4.17-1.23-6.25,1.76,1.26,3.41,2.54,5,3.79.84.62,1.58,1.28,2.42,1.87l2.51,1.76c1.66,1.16,3.17,2.39,4.87,3.45s3.31,2.16,4.93,3.22c.78.55,1.62,1.05,2.46,1.53l2.48,1.49c1.64,1,3.22,2,4.93,2.85s3.3,1.82,4.92,2.71l5,2.49c.83.4,1.62.85,2.46,1.23l2.53,1.13c1.7.73,3.28,1.57,5,2.25s3.37,1.39,5,2.08l1.24.53,1.29.46,2.53,1c3.32,1.33,6.77,2.43,10.11,3.6,1.69.57,3.41,1.07,5.1,1.6l2.53.81,2.57.72,5.11,1.44,5.14,1.29c1.69.46,3.42.84,5.14,1.23s3.42.8,5.15,1.15c6.88,1.46,13.73,2.58,20.78,3.7,14.1,2,28.42,3.46,43.14,4.51,7.34.56,14.78,1,22.32,1.43l22.84,1.33c7.68.44,15.49,1,23.34,1.58s15.79,1.36,23.7,2.29q23.75,2.68,47.52,7.47c7.93,1.62,15.86,3.45,23.8,5.54S2178.63,2277.54,2186.58,2280.56Z"/></g></g><g class="cls-12"><path class="cls-7" d="M2779.7,1932.65c41-146,85.09-248.05,174.52-333.61s191.13-159.82,265.12-259a618.61,618.61,0,0,0,119.25-309.79c8.57-90.71-6.13-189.47-67.94-256.4-62.91-68.14-162-90.06-254.69-90.78-82.78-.65-170.63,15.08-232.1,70.52-128.15,115.58-82,335.77-182.11,476.36-54.05,75.91-145.12,119.68-196.87,197.17-45.79,68.57-55,154.73-57.66,237.14-3.39,105.11,3.53,216.46,61.51,304.2s182.37,139.18,272.63,85.2c45.19-27,74-74.29,98.34-121"/><g class="cls-17"><path class="cls-2" d="M3001.67,949.13a484.28,484.28,0,0,1-15.66,87.43,617.12,617.12,0,0,1-29.88,84.38,840.1,840.1,0,0,1-40.63,79.88c-14.85,25.88-30.8,51.09-47.48,75.65-66.7,98.35-143.13,187.65-207.35,282.84-4,6-8.1,11.85-11.93,17.89l-5.83,9c-1.94,3-3.93,6-5.76,9l-11.29,18.18-10.79,18.41c-14.11,24.65-27.27,49.73-39,75.66-2.91,6.49-5.91,12.94-8.66,19.51l-4.22,9.82-4.06,9.9c-5.4,13.2-10.47,26.57-15.41,40-9.74,26.93-18.53,54.3-26.62,82-16.05,55.41-29.2,112-40.94,169.25-3,14.28-5.79,28.64-8.65,43l-8.36,43.17c-5.52,28.83-10.93,57.73-16.9,86.62-.37-29.49.1-58.94,1.12-88.39.46-14.74,1.23-29.45,2-44.19q.6-11,1.42-22.09l.78-11,.86-11c2.4-29.45,5.57-58.9,9.72-88.29s9.16-58.73,15.44-87.91,13.66-58.21,22.36-87l3.39-10.75c1.15-3.58,2.23-7.17,3.46-10.73,2.39-7.13,4.76-14.27,7.37-21.34l3.84-10.62,4-10.57c2.67-7,5.6-14,8.45-21s6-13.88,9-20.81l4.78-10.3c1.59-3.43,3.15-6.87,4.85-10.26,3.34-6.8,6.64-13.63,10.24-20.28l5.3-10c1.77-3.34,3.51-6.71,5.4-10,14.58-26.5,30.69-51.93,47.42-76.76l6.3-9.3,6.45-9.16c4.32-6.08,8.54-12.26,13-18.22s8.79-12,13.24-18l13.44-17.77q27.12-35.26,55.16-69.34c37.25-45.54,74.9-90,110.88-135.54s69.89-92.16,99.37-141.81l10.74-18.78,1.35-2.36,1.26-2.39,2.51-4.79,5.1-9.57,2.56-4.78,2.38-4.87L2962,1051l2.38-4.89c.8-1.63,1.62-3.25,2.33-4.91l4.44-9.92A714.68,714.68,0,0,0,3001.67,949.13Z"/><path class="cls-2" d="M2833.14,1290.19a69.73,69.73,0,0,1,14.52-22.76,114.85,114.85,0,0,1,21.25-17.49,183.36,183.36,0,0,1,23.77-12.85c4-1.88,8-3.48,12.07-5.17,2-.84,4.05-1.57,6.08-2.35s4.06-1.55,6.1-2.26a437.09,437.09,0,0,1,49.23-14c16.38-3.74,32.63-6.76,48.62-9.53l47.18-8c15.44-2.76,30.71-5.76,45.93-9.18s30.24-7.55,45.42-12.52c7.5-2.61,15.22-5.22,22.82-8.39,7.78-3,15.32-6.6,23.52-10.12a115.08,115.08,0,0,1-13.75,22.69,159.45,159.45,0,0,1-18.08,19.78,210.28,210.28,0,0,1-44,30.48,288.31,288.31,0,0,1-49.08,19.8,423.81,423.81,0,0,1-50.22,11.62c-16.66,2.86-33.15,4.93-49.45,6.63s-32.37,3.1-48.41,4.44l-24,2.14c-7.91.73-15.66,1.6-23.39,2.75a178.52,178.52,0,0,0-23,4.93A122.75,122.75,0,0,0,2833.14,1290.19Z"/><path class="cls-16" d="M2758.57,1375.52c-.35-2.72-.58-5.41-.82-8.08s-.63-5.33-.9-8-.72-5.26-1.08-7.88l-1.24-7.8c-1.75-10.37-3.9-20.58-6.33-30.75-4.8-20.33-10.63-40.51-15.93-61.16s-10.06-41.8-12.28-63.56a214.1,214.1,0,0,1-.93-32.83c.21-2.75.41-5.48.66-8.2s.67-5.45,1.08-8.15,1-5.38,1.54-8.05,1.33-5.3,2.11-7.91c.42,2.71.73,5.39,1.05,8.06s.78,5.31,1.12,7.94.85,5.25,1.28,7.86l1.42,7.79c2,10.33,4.3,20.52,6.87,30.68,5.08,20.3,11,40.48,16.34,61.19s9.92,41.93,11.86,63.76a205.18,205.18,0,0,1,.36,32.89c-.27,2.74-.53,5.47-.84,8.19s-.8,5.43-1.27,8.12-1.14,5.36-1.75,8S2759.41,1372.94,2758.57,1375.52Z"/><path class="cls-2" d="M2650.09,1523.41a157.79,157.79,0,0,1,15.26-14.26q7.93-6.53,16.27-12.25a281.82,281.82,0,0,1,34.56-20.26,323.65,323.65,0,0,1,36.52-15.48c6.2-2.22,12.51-4.24,18.79-6.1,3.14-.94,6.27-1.78,9.38-2.66l9.32-2.43c12.37-3.13,24.58-5.74,36.58-8.22s23.83-4.79,35.55-7.27,23.39-5.11,35.25-8.46c5.93-1.68,11.94-3.52,18.08-5.62s12.39-4.47,19.12-7a80.69,80.69,0,0,1-9,19.29,113.31,113.31,0,0,1-13.13,16.93,137.51,137.51,0,0,1-15.85,14.4,166.73,166.73,0,0,1-17.52,12,225.77,225.77,0,0,1-37.32,17.65,352.22,352.22,0,0,1-37.89,11.55l-9.37,2.24c-3.12.68-6.22,1.41-9.3,2.06-6.17,1.29-12.28,2.56-18.47,3.7-12.34,2.34-24.79,4.41-37.44,6.09s-25.48,3-38.61,3.91c-6.57.41-13.22.69-20,.79S2657.23,1524.05,2650.09,1523.41Z"/><path class="cls-16" d="M2574.9,1645.39a139.83,139.83,0,0,0-1.71-18.18,161.9,161.9,0,0,0-4.21-17.35c-1.76-5.67-3.75-11.26-5.9-16.82l-1.68-4.15c-.53-1.39-1.1-2.78-1.68-4.17l-3.51-8.31-3.59-8.37c-1.21-2.79-2.37-5.62-3.56-8.46s-2.4-5.69-3.49-8.6l-3.3-8.75c-4.19-11.74-7.95-23.65-11-35.75s-5.47-24.35-7.34-36.67c-.45-3.08-.82-6.18-1.23-9.27-.19-1.54-.43-3.08-.57-4.63l-.44-4.66c-.26-3.1-.63-6.19-.8-9.3l-.52-9.32a348.27,348.27,0,0,1,.49-37.27c.54-6.2,1-12.37,2-18.52s1.93-12.26,3.24-18.32c1,6.15,1.7,12.26,2.59,18.34s1.68,12.12,2.48,18.15c1.75,12,3.58,24,5.59,35.89,1.08,5.94,2.08,11.87,3.23,17.77q.83,4.42,1.72,8.84c.6,2.94,1.16,5.89,1.79,8.82s1.25,5.87,1.88,8.8,1.34,5.84,2,8.76l1,4.38,1.08,4.36c.71,2.91,1.38,5.83,2.13,8.73l2.25,8.7c.71,2.9,1.59,5.77,2.34,8.67l1.16,4.34,1.25,4.32,2.51,8.63,2.6,8.62,2.68,8.66,2.72,8.77,2.6,8.89c.87,3,1.65,6,2.42,9s1.47,6.11,2.13,9.18A171.28,171.28,0,0,1,2579,1608,114.43,114.43,0,0,1,2579,1627,79.63,79.63,0,0,1,2574.9,1645.39Z"/><path class="cls-16" d="M2499,1840.33c6.14-3.34,12.37-6.45,18.61-9.48s12.54-6,18.84-8.84c12.61-5.73,25.32-11.16,38.1-16.41,25.61-10.52,51.41-19.73,75.84-30.76a347.22,347.22,0,0,0,35.44-18.28c5.68-3.41,11.13-7,16.48-10.84,1.36-.93,2.62-2,3.94-3s2.63-2,3.89-3l3.84-3.09,3.72-3.24c19.72-17.41,36.17-38.94,45.33-65.37q-.09,2.61-.24,5.25c-.06.88-.08,1.76-.19,2.63l-.35,2.62-.37,2.62c-.12.88-.23,1.77-.43,2.62-.35,1.74-.75,3.46-1.13,5.21-.17.88-.41,1.73-.66,2.58l-.75,2.57c-.51,1.71-1,3.44-1.64,5.1s-1.24,3.36-1.87,5l-2.16,4.93c-.36.83-.71,1.66-1.12,2.46l-1.24,2.39c-.84,1.59-1.62,3.23-2.52,4.78-1.82,3.11-3.66,6.22-5.71,9.19a144.6,144.6,0,0,1-13.36,17,177.91,177.91,0,0,1-32.79,28.22c-1.49,1-3,2-4.51,2.94s-3,1.91-4.58,2.82-3.07,1.86-4.62,2.75l-4.67,2.63c-6.28,3.39-12.66,6.59-19.13,9.47a410.82,410.82,0,0,1-39.34,15.13c-6.62,2.18-13.23,4.29-19.87,6.26l-9.93,3-10,2.85c-13.3,3.74-26.66,7.32-40.12,10.58-6.74,1.62-13.48,3.2-20.28,4.66S2505.89,1839.18,2499,1840.33Z"/></g></g><rect class="cls-11" x="1913.82" y="550.02" width="920.47" height="1972.78"/><path class="cls-18" d="M2776.81,491.66H1970.12A115.25,115.25,0,0,0,1854.88,606.9v1861a115.25,115.25,0,0,0,115.24,115.24h806.69a115.25,115.25,0,0,0,115.24-115.24V606.9A115.25,115.25,0,0,0,2776.81,491.66ZM2833.7,2467.9a57,57,0,0,1-56.89,56.89H1970.12a57,57,0,0,1-56.89-56.89V606.9A57,57,0,0,1,1970.12,550H2165l26,68.89h364.93l26-68.89h194.89a57,57,0,0,1,56.89,56.88Z"/><path class="cls-19" d="M2774.43,1260.9c-11.13-9.56-17.83-21.69-21.88-32.83a41.33,41.33,0,0,0,4.28-18.37V939.29a41.61,41.61,0,0,0-41.6-41.6H2148.81a41.61,41.61,0,0,0-41.6,41.6V1209.7a41.61,41.61,0,0,0,41.6,41.6h566.42a41.38,41.38,0,0,0,20.36-5.33C2745.05,1253.24,2758.17,1260.19,2774.43,1260.9Z"/><path class="cls-7" d="M2541.62,1659.31H2050.41a64.8,64.8,0,0,0-64.8,64.8v105.6a64.47,64.47,0,0,0,6.87,29c-3.74,12.51-10.71,27.26-23.74,38.45,17.68-.77,31.66-8.93,41.25-16.85a64.5,64.5,0,0,0,40.42,14.17h491.21a64.8,64.8,0,0,0,64.8-64.8v-105.6A64.8,64.8,0,0,0,2541.62,1659.31Z"/><path class="cls-7" d="M2555.22,1928.11H2036.81a51.2,51.2,0,0,0-51.2,51.2h0a51,51,0,0,0,4.79,21.63c-4.07,11-10.73,22.86-21.66,32.25,15.09-.65,27.49-6.7,36.76-13.38a50.94,50.94,0,0,0,31.31,10.7h518.41a51.2,51.2,0,0,0,51.2-51.2h0A51.2,51.2,0,0,0,2555.22,1928.11Z"/><path class="cls-7" d="M2422.12,1386.22H2030.71a45.1,45.1,0,0,0-45.1,45.1v12.21a45,45,0,0,0,3.79,18.1c-4.14,10.23-10.58,21-20.66,29.67a67,67,0,0,0,34.64-11.9,45,45,0,0,0,27.33,9.23h391.41a45.1,45.1,0,0,0,45.1-45.1v-12.21A45.1,45.1,0,0,0,2422.12,1386.22Z"/><path class="cls-7" d="M2502.69,2064.12H2049.35a63.73,63.73,0,0,0-63.74,63.73V2170a63.53,63.53,0,0,0,6.71,28.47c-3.77,12.4-10.72,26.9-23.58,38,17.47-.76,31.34-8.74,40.91-16.57a63.47,63.47,0,0,0,39.7,13.89h453.34a63.73,63.73,0,0,0,63.73-63.74v-42.13A63.73,63.73,0,0,0,2502.69,2064.12Z"/><path class="cls-2" d="M2778.19,1630.16a73.63,73.63,0,0,1-17.81-23.33,40.33,40.33,0,0,0,4.43-18.4v-26.25a40.47,40.47,0,0,0-40.47-40.48h-191.8a40.48,40.48,0,0,0-40.48,40.48v26.25a40.48,40.48,0,0,0,40.48,40.48h191.8a40.29,40.29,0,0,0,23.83-7.77A65.4,65.4,0,0,0,2778.19,1630.16Z"/><rect class="cls-11" x="2148.81" y="941.56" width="524.81" height="27.2"/><rect class="cls-11" x="2148.81" y="997.56" width="304.1" height="27.2"/><rect class="cls-11" x="2148.81" y="1053.56" width="450.49" height="27.2"/><rect class="cls-11" x="2148.81" y="1109.56" width="524.81" height="27.2"/><rect class="cls-11" x="2148.81" y="1164.23" width="318.41" height="27.2"/><rect class="cls-2" x="2021.89" y="1420.51" width="410.69" height="28.46"/><rect class="cls-2" x="2021.89" y="1705.15" width="425.6" height="28.46"/><rect class="cls-2" x="2021.89" y="1763.48" width="525.9" height="28.46"/><rect class="cls-2" x="2021.89" y="1821.81" width="525.9" height="28.46"/><rect class="cls-2" x="2021.89" y="1966.33" width="525.9" height="28.46"/><rect class="cls-2" x="2021.89" y="2098.22" width="296.84" height="28.46"/><rect class="cls-2" x="2021.89" y="2156.51" width="459.49" height="28.46"/><rect class="cls-11" x="2534.24" y="1561.7" width="184.47" height="28.46"/><path class="cls-8" d="M3357.56,2115.81l-49.68-13.15c-5.51-1.45-5.18-7,.74-12.32l125.85-113.75c5.91-5.35,15.18-8.5,20.69-7l49.69,13.14c5.51,1.46,5.18,7-.74,12.32l-125.85,113.75C3372.34,2114.11,3363.07,2117.26,3357.56,2115.81Z"/><g class="cls-20"><g class="cls-21"><path d="M3502.31,2017.74c-75.9,48.74-165.51,79.14-241,81.75,5.11,14.18,19.93,22.88,37.8,27.4s38.76,5.21,59.5,5.87c8.07.26,16.33.49,25.37-1.52,19.68-4.39,38.95-18.35,55.11-32,29-24.53,54.37-51.26,74.65-78.67"/></g><ellipse class="cls-22" cx="3430.16" cy="2022.05" rx="14.32" ry="5.64" transform="translate(-521.43 2511.51) rotate(-37.58)"/></g><path class="cls-23" d="M3382.94,2522.49c117.42-20.91,180.95-78.09,177.78-19.33-5.89,108.89-146.9,150.82-197.87,128.66C3278.83,2595.29,3382.94,2522.49,3382.94,2522.49Z"/><path class="cls-8" d="M3000.82,2311.51c62.34,96.89,56.3,100.91,201.52,30.78s277.44,3.67,57.91,161.35-260.59,152.13-283.08,129.64-76.05-36.21-67.46-86c9.78-56.64-59.06-211.4-59.06-211.4"/><path class="cls-3" d="M3020.41,1951.37c105.94,260.22,83,323.15,267.53,306.6s185.14,122.64,155.91,126.64-73.27-40.65-109.39-60.53c-44.89-24.71-224.2,88.84-272,5.1s-102.83-213.47-126.19-264.8-23.53-99.08,6.84-118.79S3007.63,1920,3020.41,1951.37Z"/><g class="cls-24"><path class="cls-25" d="M3340.41,2233.09a202,202,0,0,0-60.18,130.16c-75-26.4-159.83,12-236.81-8.06-14.81-3.87-29.51-10.18-40-21.36-21.38-22.87-19.35-58-24.3-88.95-7.41-46.26-32.7-87.39-49.84-131s-25.3-95.85.06-135.24c24.83-38.55,83.94-52.09,119.82-23.54,22.34,17.76,32.62,46.72,37.51,74.84s5.53,57.08,13.69,84.42c24.08,80.65,120.49,131.35,200.58,105.49"/><path class="cls-26" d="M3369.12,2310a197.48,197.48,0,0,1,31.21,23.94q7.15,6.74,13.63,14.16a71,71,0,0,1,10.85,15.58,31.81,31.81,0,0,1,3,9.85,18,18,0,0,1,.06,5.23c-.18,1-1.36,3.48-2.72,2.27s-3.28.77-2,1.94c2.38,2.11,5.75.66,6.89-2,1.24-2.94.69-6.75.11-9.79-1.3-6.81-4.9-13-9-18.48-8.66-11.55-19.39-21.82-30.62-30.84a202,202,0,0,0-20.07-14.2c-1.51-.94-2.9,1.44-1.39,2.38Z"/><path class="cls-26" d="M3393.06,2298.58a220.36,220.36,0,0,1,29.34,25,93.57,93.57,0,0,1,13.11,16.31,75.52,75.52,0,0,1,4.23,8.73c1.74,3.93,3.79,7.73,5.53,11.66,3.51,8,5.79,19.19-1.57,25.84-1.32,1.2.63,3.14,2,2,6.43-5.82,6.66-15.7,4.22-23.43a88.51,88.51,0,0,0-5.21-12c-1.75-3.58-3.16-7.32-5-10.86-3.2-6.28-7.73-11.88-12.47-17.06a185.59,185.59,0,0,0-16.56-15.78q-7.85-6.69-16.2-12.73c-1.44-1-2.82,1.35-1.4,2.38Z"/><path class="cls-26" d="M3410.63,2293.05a90.28,90.28,0,0,1,41.78,52.52,86.05,86.05,0,0,1,3.46,19.16c.11,1.77,2.87,1.78,2.75,0a93.11,93.11,0,0,0-30.49-62.5,89,89,0,0,0-16.11-11.56,1.38,1.38,0,0,0-1.39,2.38Z"/><g class="cls-27"><path d="M2930.87,1924.78A1385.11,1385.11,0,0,0,2996,2146.32c29.2,75.45,67,150.87,130.15,201.44,7.89,6.31,16.38,12.48,21.22,21.36s4.73,21.45-3.24,27.68c-3.59,2.81-8.21,3.94-12.72,4.67-56.57,9.19-109.24-32.84-141.7-80.07-51.07-74.28-72.53-168.35-58.72-257.43"/></g></g><path class="cls-5" d="M2949.2,1885.73c102.49-17.83,104.45,120.31,67.61,192.21-43.93,85.74-43.93,152-16,233.57-208.84,38.69-274.51,35.6-303.18,45.08C2725.84,1995.69,2796.09,1917.64,2949.2,1885.73Z"/><g class="cls-28"><g class="cls-27"><path d="M3074.32,2006.9l-11.89-27c-41,65.43-88.49,127.32-138.72,188.57a535.06,535.06,0,0,1-42.79-153.71c-32.61-1.28-65.71,16.93-80.27,44.18l8.73,17c-2.73,48.1,14.2,121.05,39,182.34l-4.67,5.49c-14.52,17.09-29.25,34.36-47.57,47.3-20.81,14.71-46.56,24.19-60.85,45.29-3.54,5.23-6.1,12.64-2.09,17.52,3.41,4.13,9.63,4.11,15,3.74,85.91-6,171.94-12,257.06-25.1,10.25-1.58,20.74-3.35,29.79-8.41,5.3-3,10.11-7.2,12.54-12.76,3.36-7.72,1.68-16.58.37-24.9-9.27-58.76,3.26-119,22.79-175.17,7.14-20.54,15.28-41,18-62.57S3088.07,2023.75,3074.32,2006.9Z"/></g></g><path class="cls-6" d="M2699.35,2342.29c-57.78,272.71-5.78,359.87,158.71,283,201.93-94.37,197.23-175.57,263.3-119.3s183.52,149.08,234,129.23,48.67-98,26.41-120.45c-186.29-99.13-168.07-233-288.3-211.06S2890.49,2386,2890.49,2386l-8.55-52.38Z"/><g class="cls-29"><g class="cls-27"><path d="M2683.91,2317.26a805,805,0,0,0,24,154.45c11.94,46.48,32,96.52,75.44,116.95,16.86,7.93,35.75,10.51,54.37,11.14a281,281,0,0,0,74-7.4c3.43-.82,7.12-1.68,10.39-.36,8.7,3.49,5.67,16.57.64,24.47a205.37,205.37,0,0,1-122.61,88c-43.77,10.79-94.65,4.81-126.37-27.23-37.62-38-37.48-98.75-29.53-151.63a800.09,800.09,0,0,1,51-184.65"/></g></g><path class="cls-23" d="M2888.6,2582.81c57-37.53,93.29-19.41,129.54-31.91s72-55.39,123.56-45.94-2.49,163.18-193.49,155.58C2819.29,2655.41,2855.93,2618.68,2888.6,2582.81Z"/><path class="cls-3" d="M2902.57,2021.06c133.36,349,116.34,308.08,326.3,127.46,4.93-39.07,57-70.14,84.63-75.63s7.77,22.88,7.77,22.88,38.21,6.83,80.42-12.42,43.76,43.84-83.23,90.53-275.11,369.82-397.18,163-150-278-119.78-320.83S2879.58,1960.89,2902.57,2021.06Z"/><g class="cls-30"><path class="cls-5" d="M3188.88,2154.09a232.12,232.12,0,0,0,66.74,95.13c-60.61,32.17-97.5,94.89-145.52,143.92a397.93,397.93,0,0,1-81.44,63.86c-28.48,16.86-61.75,30.45-94.06,23.27-50.11-11.13-76.32-65.43-92.43-114.16-25.12-76-43.16-154.16-57.44-232.91-7.14-39.35-13.25-80.5-1.78-118.82s45.69-72.78,85.66-71.33c41.73,1.52,72.82,39.58,89.56,77.84,26.29,60.1,31.87,127.81,59.46,187.32,2.73,5.89,6.06,12.08,11.92,14.87,5,2.39,10.86,1.8,16.33.93a197.06,197.06,0,0,0,124-73.89"/><path class="cls-26" d="M3322.58,2119.2c10.79-1.12,21.47-2.61,32-4.66,2.63-.57,5.26-1.13,7.89-1.65l7.85-1.85,7.79-2.05,7.72-2.28,7.68-2.45,7.59-2.69,7.53-2.87q3.71-1.56,7.46-3.07c9.89-4.23,19.56-9,29.12-14.12a182.85,182.85,0,0,1-27.93,16.73c-2.46,1.16-4.93,2.31-7.41,3.43l-7.53,3.15-7.67,2.84-7.76,2.56-7.86,2.23-7.93,2-8,1.63c-2.68.46-5.37.89-8.06,1.31A182.36,182.36,0,0,1,3322.58,2119.2Z"/><path class="cls-26" d="M3337.87,2136.26a190.54,190.54,0,0,0,24-3c1.95-.44,3.9-.87,5.86-1.27l5.81-1.48c1.91-.59,3.84-1.12,5.75-1.68l5.67-1.92,5.61-2.1,5.51-2.34,5.44-2.52c1.77-.93,3.56-1.83,5.35-2.73a187.93,187.93,0,0,0,20.48-12.8,98.05,98.05,0,0,1-19,15.29c-1.76,1.05-3.52,2.09-5.3,3.1l-5.47,2.82-5.61,2.5-5.74,2.24-5.85,1.89c-2,.54-3.95,1.1-5.94,1.61l-6,1.27c-2,.34-4.05.64-6.07.94A98.33,98.33,0,0,1,3337.87,2136.26Z"/><path class="cls-26" d="M3340.5,2150.28a81,81,0,0,0,14.65,1.54,53.19,53.19,0,0,0,7.17-.49c1.17-.16,2.33-.39,3.55-.63l3.62-.73c4.82-1,9.62-2.1,14.45-3.19,2.4-.57,4.85-1.09,7.23-1.67a30.15,30.15,0,0,0,7-2.43,21,21,0,0,1-6.37,4.14c-2.34,1-4.66,1.89-7,2.71a109.63,109.63,0,0,1-14.5,4,73.72,73.72,0,0,1-7.52,1.23,38.26,38.26,0,0,1-7.72-.12A40.34,40.34,0,0,1,3340.5,2150.28Z"/></g><path class="cls-4" d="M3114.41,1685.75c-64.66-38.4-191-5.19-151,18.58s-14,23-44.42,27.28-64.93,8.62-33.95,27.55,23.45,26.59-16.37,23.89-31.67,15.49,116.88,113.78c193.91,27.51,191.23,27.58,163,1.38s-22.32-24.76-4.91-33.74,22.15-3.51-.82-24S3184.54,1727.41,3114.41,1685.75Z"/><path class="cls-3" d="M3021.68,1805.47c-33.21,47.06-55.8,75.54-88,82.78,29.67,98.33,98.31,60.29,98.31,60.29-16.4-55.93,21.68-86,21.68-86Z"/><path class="cls-26" d="M3034,1890.28a138.77,138.77,0,0,1-16.27-25.4,127.25,127.25,0,0,1-12.13-37.09c5.11-6.89,10.44-14.34,16.07-22.32l32,57.1S3041.63,1872.06,3034,1890.28Z"/><path class="cls-3" d="M3091.6,1692.16c-105.44,1.53-111.95,89.82-84.55,143.46s60.26,55.43,85.51,43,60.93-111.56,45-152.37S3091.6,1692.16,3091.6,1692.16Z"/><g class="cls-31"><path class="cls-6" d="M3066.62,1764.17c0-.3.1-.58.15-.87v-.08l.28-.08c2.72-.83,5.75-.19,8.27.82a29.11,29.11,0,0,1,3.63,1.78,20.26,20.26,0,0,1,3.44,2.44,14.87,14.87,0,0,1,2.86,3.39,15,15,0,0,1,1.69,4,18.41,18.41,0,0,1,.26,8.18c-1.51-2.32-2.61-4.65-3.89-6.66a20.33,20.33,0,0,0-4.27-5.1c-.84-.73-1.75-1.43-2.74-2.15l-3-2.23a28.58,28.58,0,0,0-6.3-3.82l.29-.15C3067.09,1763.81,3066.87,1764,3066.62,1764.17Z"/><path class="cls-6" d="M3082.29,1774a4.75,4.75,0,0,0-5.08-1.27,7.47,7.47,0,0,0-4.05,3.62,10.8,10.8,0,0,0,1.66,12.35c1.13,1.17,2.78,2.11,4.32,1.62,1.76-.56,2.49-2.6,3-4.37,1.09-4,2.11-8.52-.09-12"/><path class="cls-6" d="M3133.13,1781.55c-1.89,1-3.51,1.68-5,2.45a47.33,47.33,0,0,0-4.17,2.38c-1.32.84-2.61,1.75-3.95,2.77l-4.4,3.42a9.86,9.86,0,0,1,1.33-6,12.8,12.8,0,0,1,4.3-4.51,12.64,12.64,0,0,1,5.93-1.95A10.06,10.06,0,0,1,3133.13,1781.55Z"/><path class="cls-6" d="M3126.14,1787.33c-.27-.86-1.54-.78-2.35-.38-2.65,1.29-4.41,3.86-5.86,6.41a11.29,11.29,0,0,0-1.58,3.94,4.4,4.4,0,0,0,1.21,3.9,4.24,4.24,0,0,0,4.38.48,8.67,8.67,0,0,0,3.43-3,18.4,18.4,0,0,0,3.24-8c.21-1.37-.08-3.22-1.45-3.45"/><path class="cls-26" d="M3109.21,1777.81a60.69,60.69,0,0,0-4.38,12.88,54.83,54.83,0,0,0-1.19,13.06c.05,2.2.23,4.54.15,7a21.39,21.39,0,0,1-1.44,7.47,23,23,0,0,1-9.66,10.73c2.6-4,4.95-7.88,5.86-12s.17-8.26,0-13.1a36.76,36.76,0,0,1,2.45-14.36A29,29,0,0,1,3109.21,1777.81Z"/><path class="cls-6" d="M3080.24,1745a10,10,0,0,1,6,.21,17.72,17.72,0,0,1,5.17,2.61,16.77,16.77,0,0,1,4.06,4.17,9.86,9.86,0,0,1,1.88,5.72c-1.77-1.1-3.25-2-4.71-2.9s-2.86-1.88-4.23-2.89-2.71-2.07-4-3.2S3081.78,1746.39,3080.24,1745Z"/><path class="cls-6" d="M3120.75,1766.05a8.24,8.24,0,0,1,2.92-3.53,9.61,9.61,0,0,1,4.22-1.61,8.51,8.51,0,0,1,4.68.71,5.67,5.67,0,0,1,3.19,3.54,39.32,39.32,0,0,0-4,.36l-3.22.42c-1.09.14-2.22.25-3.48.32A19.2,19.2,0,0,1,3120.75,1766.05Z"/><path class="cls-32" d="M3069,1828.59a46.44,46.44,0,0,0,26.23,12.51,53,53,0,0,1-8.07,10.25c-2.23,2.2-5.07,4.34-8.17,3.91s-5.24-3.24-6.83-5.93c-4.19-7.07-7.05-15.14-6.77-23.35"/><path class="cls-26" d="M3062.23,1795a19.94,19.94,0,0,0-18.15-11.11,7.79,7.79,0,0,0-4.85,1.48,6.25,6.25,0,0,0-1.75,5.9,13.85,13.85,0,0,0,2.93,5.68c4.62,6,11.52,10.53,19.05,10.72,1.89,0,4-.3,5.12-1.83,1.31-1.8.62-4.3-.12-6.4"/><path class="cls-26" d="M3131.85,1808.69c-7,.11-13.9,7.1-15.62,12.39-.47,1.46-.62,3.36.62,4.27a3.61,3.61,0,0,0,2.47.47c2.39-.18,5.82-1.79,7.85-3.06"/></g><path class="cls-26" d="M3087.16,1733.38c-51.76-2.74,14.56,24.43-22.16,25.84s-51.07,1.54-41.79,12.35c7.09,8.27-9.43-2.77-29.68.27,2.77-41,29.5-78.69,98.07-79.68,0,0,21.38-4.91,37.65,18.16a26.78,26.78,0,0,1,0,3.11C3073.17,1704.24,3138.94,1736.11,3087.16,1733.38Z"/><path class="cls-4" d="M3127.91,1708.48c-50.49-7.45,8.23,21.09-38.46,19.61s12.63,22.63-20.56,24.72-46.15,2.52-38,12.47-19.45-10.2-44.23,8.53c-15.44-42.06-11.89-72.64,38.9-86S3130,1674,3127.91,1708.48Z"/><path class="cls-4" d="M1757,795.85C1954,902,2104.93,1103.51,2039.42,1207s-303.61,153.75-359.37,155.28c-61.32,1.69,87.7-90.86,200.34-158.06S1811.22,1047.53,1773,996.69,1757,795.85,1757,795.85Z"/><g class="cls-33"><path class="cls-3" d="M1865.14,1113.33c46.6,77.68,122.47,134.13,206.21,153.43-8.41,25.19-34.26,37.28-57.48,46.6l-216.08,86.79c-39.29,15.78-79,31.66-120.46,37.87-31.33,4.68-68.73.72-85.89-28-6-9.94-8.65-21.83-9.44-33.64-4.46-66.93,47.83-121.49,99.29-159a828.42,828.42,0,0,1,173.58-97.17"/><path class="cls-26" d="M1681,1261.89c-4.58,3.33-3.44,11,.78,14.79s10.21,4.68,15.84,5.34a591.48,591.48,0,0,0,291.17-39.76c17.89-7.31,35.65-15.58,54.72-18.73,3.7-.61,7.75-1,11,.94,5.15,3,5.8,10.29,4.65,16.17-3.66,18.9-18.65,33.23-32.85,46.22l-57.11,52.2c-18.44,16.87-36.94,33.78-57.22,48.39a325.74,325.74,0,0,1-207.54,60.35c-27.58-1.61-57.22-8-75.2-29-19.24-22.47-19.66-56.46-8.76-84s31.24-50,51.18-71.87"/></g><path class="cls-5" d="M1346.12,846.39h82.49c9.15,0,15.28-7.59,13.68-17l-34-199.16c-1.6-9.37-10.31-17-19.46-17h-82.49c-9.15,0-15.27,7.59-13.68,17l34,199.16C1328.26,838.8,1337,846.39,1346.12,846.39Z"/><g class="cls-34"><g class="cls-21"><path d="M1268.08,661.7c44.11,93.21,128.51,166.49,227,197.09-23.74,17.37-54,23.85-83.46,23.57s-58.36-6.83-87-13.37c-11.17-2.55-22.56-5.18-32.34-11.16-21.25-13-30.57-38.81-36-63.11a394.37,394.37,0,0,1-6.81-133.31"/></g><path class="cls-22" d="M1349.39,695.36c1.69,9.11,7.83,15.61,13.71,14.51s9.27-9.37,7.57-18.48-7.84-15.6-13.72-14.51S1347.69,686.25,1349.39,695.36Z"/></g><path class="cls-6" d="M1293.79,467.3a6.52,6.52,0,0,0-4.28-8.06,1.64,1.64,0,0,0-2,1.14,1.66,1.66,0,0,0,1.14,2c.17.05.62.28.13,0l.39.19.36.23c.12.09.25.27-.08-.06l.15.12c.11.1.21.2.31.31s.4.54.1.09c.16.24.33.47.47.73l.08.18c.16.31-.09-.26,0-.1s.1.27.14.41.08.28.11.42a2,2,0,0,0,0,.24c0,.19,0-.43,0-.16a6.17,6.17,0,0,1,0,.86c0,.3.07-.4,0-.12,0,.07,0,.15,0,.23a3.81,3.81,0,0,1-.13.45,1.65,1.65,0,0,0,1.14,2,1.67,1.67,0,0,0,2-1.14Z"/><path class="cls-4" d="M1594.88,807c-131.19,28-224.44,250.56-276.42,289.56s-39.7,196.05,29.32,158.15,231.16-216,247.1-295.92S1594.88,807,1594.88,807Z"/><g class="cls-35"><g class="cls-27"><path d="M1576.4,762.64c1.33,18.88,15.9,56.2,17.24,75.08,1.61,22.71-24.37,77.71-25.29,100.45-3.2,78.94-29.71-11.75-62.4,60.18-8.54,18.79-64.09,144.84-75.55,162-12.19,18.28-23.07,30-38.21,45.87-28.52,30-57.3,60.19-91.25,83.85-5.58,3.89-11.66,8.07-13.74,14.54-1.32,4.08-.82,8.54.21,12.71,5.84,23.64,28.07,40.78,51.84,46s48.72.39,71.68-7.72c82.74-29.23,148.21-103,167.41-188.62"/></g></g><path class="cls-3" d="M1299.67,869.51c-51.06,164.06-66.41,441.6,34.32,394.21s-8.52-214.31,24.91-342.88,101.86-190.21,21.56-199.66S1299.67,869.51,1299.67,869.51Z"/><g class="cls-36"><path class="cls-26" d="M1242.08,1103.71c1,12.38,2.37,24.82,6,36.69,5.11,16.56,14.45,31.45,24,45.89,9.83,14.81,20.24,29.62,34.24,40.58s32.27,17.7,49.69,14.16c9.29-1.89,17.9-6.57,27.29-7.83s20.69,2.41,23.43,11.48c3.75,12.41-10.21,22.43-22,27.72-23.23,10.37-47.22,20-72.52,22.72s-52.34-2.18-72-18.28c-30-24.5-36-67.21-39.87-105.73"/><path class="cls-26" d="M1417,724.87a18,18,0,0,0-8.59,5.53,28.94,28.94,0,0,0-5.19,8.66c-1.25,3.17-2.27,6.49-3.25,9.9s-2.06,6.77-3.09,10.15c-2.11,6.76-4.25,13.5-6.58,20.22a202.62,202.62,0,0,1-8,19.84c1.32-7,3-13.93,4.7-20.81s3.54-13.75,5.68-20.54q1.59-5.09,3.34-10.13a74.62,74.62,0,0,1,4.09-10.05,31.26,31.26,0,0,1,2.93-4.73,24.29,24.29,0,0,1,3.86-4A16.38,16.38,0,0,1,1417,724.87Z"/><path class="cls-26" d="M1399.77,718.38a11.15,11.15,0,0,0-5,2.34,16.89,16.89,0,0,0-3.51,4.07,45.5,45.5,0,0,0-4.44,10q-3.57,10.72-7.32,21.35t-7.68,21.23c-2.62,7.06-5.29,14.11-8.3,21.09a221,221,0,0,1,5.07-22.13c2-7.29,4.28-14.51,6.81-21.63s5.28-14.17,8.27-21.12a39.29,39.29,0,0,1,5.9-10,17.09,17.09,0,0,1,4.54-3.79A10.47,10.47,0,0,1,1399.77,718.38Z"/><path class="cls-26" d="M1383.12,714.09c-3.75,1.42-6.21,4.52-8,7.83a52.65,52.65,0,0,0-2.5,5.18l-2.33,5.38q-4.62,10.78-9,21.61c-2.93,7.24-5.82,14.49-8.61,21.79s-5.52,14.65-8.44,22a176.42,176.42,0,0,1,5.23-23.06A232.84,232.84,0,0,1,1367.22,731c.92-1.74,1.86-3.47,2.84-5.19a50.19,50.19,0,0,1,3.26-5.08,21.46,21.46,0,0,1,4.27-4.35A11.6,11.6,0,0,1,1383.12,714.09Z"/><path class="cls-26" d="M1356.4,721.45a8,8,0,0,0-3.64,3.45,23.92,23.92,0,0,0-2,4.67c-1.09,3.31-2.19,6.65-3.33,9.94-2.24,6.63-4.58,13.2-6.93,19.77s-4.74,13.12-7.23,19.66-5,13.08-7.79,19.54a184.39,184.39,0,0,1,4.57-20.59c1.83-6.78,4-13.47,6.35-20.08s5-13.14,7.88-19.54c1.43-3.21,3-6.36,4.53-9.53a22.66,22.66,0,0,1,3-4.55,10.16,10.16,0,0,1,2.08-1.8A6.67,6.67,0,0,1,1356.4,721.45Z"/></g><path class="cls-4" d="M1583.51,811.38c-87.16,27-129.81,392.82-129.81,392.82l363.78-9.11s69.31-385.57-70.52-399.24S1583.51,811.38,1583.51,811.38Z"/><g class="cls-37"><path class="cls-6" d="M1690,760.22c-25.09-.52-33,31.37-35.12,50.92-4.13,37.73-7.92,75.49-11.88,113.24s-7.9,75.36-11.86,113-7.91,75.44-11.87,113.16l-11.88,113.29q-.75,7.19-1.51,14.36c-.22,2.09,3.05,2.07,3.26,0L1620.76,1167l11.61-110.62,11.64-111L1655.59,835c1.55-14.78,2.18-30,6.7-44.25,3.21-10.16,8.89-22.15,19.67-26a21.9,21.9,0,0,1,8-1.21c2.1,0,2.1-3.22,0-3.26Z"/><path class="cls-6" d="M1650.23,1159.21c0,3.29-5.93,6-9.22,6a6,6,0,0,1,0-11.92C1644.3,1153.25,1650.23,1155.91,1650.23,1159.21Z"/><circle class="cls-6" cx="1650.23" cy="1063.73" r="5.96"/><path class="cls-6" d="M1667.93,963.17c0,3.29-5.93,6-9.22,6a6,6,0,0,1,0-11.92C1662,957.21,1667.93,959.88,1667.93,963.17Z"/><circle class="cls-6" cx="1674.62" cy="874.73" r="5.96"/><g class="cls-38"><path d="M1443.94,1191.31c106.47-18.62,205.75-65,303.59-111,35.89-16.86,72.33-34.07,102-60.38,13.45-11.92,25.79-25.88,42.28-33,11.53,58.08-7.35,117.68-30,172.38-14.62,35.26-33.06,72.16-66.72,90.17-22.39,12-48.66,13.93-74,14.84a1257.39,1257.39,0,0,1-275.65-20.45c-16-3-35.7-10.41-36.25-26.68-.51-15,15.89-24.06,29.8-29.6"/></g></g><path class="cls-6" d="M1475.22,1204.2c-69.61,615.85-125.66,1212.36-121.47,1265.68-148,25.56-154.41,37.26-157.45,144.11h309.92s21.5-117.19,6.34-159.16c25.36-219.93,78-845.32,78-845.32l22.16,860.94s-17.92,96.17-15.22,143.54h315.75s31.91-137.07-118.67-159.16c-37.6-124.21,3.78-1259.74,3.78-1259.74Z"/><g class="cls-39"><path class="cls-40" d="M1515.19,1226.12a41.19,41.19,0,0,1,1.21,16.61,51.4,51.4,0,0,1-1.71,8.32,58.56,58.56,0,0,1-3,8,71,71,0,0,1-8.86,14.53c-1.75,2.22-3.6,4.36-5.53,6.41s-3.94,4-6,5.88c-8.26,7.52-17.29,13.78-26.27,19.84s-18.24,11.88-27.94,17.06c7.62-7.93,15.74-15.19,24-22.24s16.82-13.67,24.63-20.77,14.93-14.74,20.19-23.69S1514.88,1237.13,1515.19,1226.12Z"/><path class="cls-40" d="M1697.73,1213.51a158.51,158.51,0,0,0,9.56,35.59,179.48,179.48,0,0,0,17.36,32c.86,1.27,1.68,2.55,2.55,3.81l2.66,3.74c1.74,2.52,3.62,5,5.42,7.45q5.55,7.38,11.27,14.73c7.56,9.84,15.28,19.73,22,30.37-9.35-8.41-18.33-17-27-26.14-4.33-4.54-8.47-9.28-12.5-14.13s-7.84-9.92-11.34-15.24a128.5,128.5,0,0,1-16.6-34.42A94.4,94.4,0,0,1,1697.73,1213.51Z"/><path class="cls-40" d="M1595.28,1197.87c2.66,19.89,4.07,39.9,4.8,59.94s.63,40.1-.15,60.14-2.28,40-4.53,60-5.25,39.76-9.47,59.38c.8-20,2-40,3-59.92s2-39.84,2.75-59.76,1.41-39.84,1.93-59.79S1594.53,1217.92,1595.28,1197.87Z"/><path class="cls-40" d="M1592.09,1570.09c4.46,25.56,7.92,51.22,11.93,76.72s8.65,50.85,14.12,76,11.73,50.18,18.52,75.08,14.4,49.61,21.64,74.52q-15.71-35.58-27.82-72.66a755.22,755.22,0,0,1-20.42-75.19,734.18,734.18,0,0,1-12.41-76.93C1594.83,1621.85,1593.15,1596,1592.09,1570.09Z"/><path class="cls-40" d="M1592.16,1601.54a32.84,32.84,0,0,1,5.31-5.16l1.75-1.36-1,2c-9.88,20.5-19.08,41.22-28.34,62s-18.53,41.5-28.51,62-20.66,40.74-33.09,60a308.32,308.32,0,0,1-20.06,27.88,196,196,0,0,1-23.74,24.7c14.87-17.29,27.17-36.27,38.37-55.87s21.22-39.91,31.1-60.31,19.55-41,29.85-61.28l7.82-15.19c2.64-5,5.39-10,8.13-15,5.52-10,11.34-19.79,17.55-29.35l.75.69A36.53,36.53,0,0,0,1592.16,1601.54Z"/><path class="cls-40" d="M1566.13,1695.1c-3.51,13-7.87,25.69-12.54,38.24s-9.8,24.92-15.22,37.16-11.2,24.31-17.34,36.21-12.66,23.63-20,35c4.19-12.8,9-25.27,14-37.67s10.27-24.65,15.69-36.85,11-24.31,16.82-36.35S1559.46,1706.81,1566.13,1695.1Z"/><path class="cls-40" d="M1258.55,2480.07a52.23,52.23,0,0,1,18.52,34.81,49.41,49.41,0,0,1-.16,11.53,1.71,1.71,0,0,0,1.14,2,1.65,1.65,0,0,0,2-1.14,55.51,55.51,0,0,0-10.77-40.71,53.66,53.66,0,0,0-8.43-8.81c-1.61-1.32-3.93,1-2.31,2.31Z"/><path class="cls-40" d="M1286.29,2473.14c.52.25.72.58.61,1-.56.15-.64.3-.22.47.11.27.55.59.75.84.61.77,1.19,1.59,1.75,2.4,1.13,1.61,2.2,3.28,3.18,5a66.94,66.94,0,0,1,5.06,10.94,67.65,67.65,0,0,1,3.92,23.46c0,2.1,3.24,2.1,3.27,0a70.33,70.33,0,0,0-3.84-23.72,71.18,71.18,0,0,0-4.77-10.84,52.38,52.38,0,0,0-6.63-10c-1.27-1.42-3.59-2.3-5-.57a2.54,2.54,0,0,0,1.08,4.16,1.63,1.63,0,0,0,.86-3.14Z"/><path class="cls-40" d="M1314.37,2469.35a82.15,82.15,0,0,1,14.86,41.75c.14,2.09,3.4,2.1,3.26,0a85.43,85.43,0,0,0-15.31-43.4c-1.2-1.7-4-.07-2.81,1.65Z"/><path class="cls-40" d="M1336.69,2465.08c.25.48-.75,1.08-.68,1.26,0,0,.41,0,.45,0a2.2,2.2,0,0,1,1.27.58,9.69,9.69,0,0,1,1.16,1.84c.5.85,1,1.71,1.46,2.59a67.21,67.21,0,0,1,4.38,10.08,69.62,69.62,0,0,1,3.74,21.4,67.1,67.1,0,0,1-.94,12.42c-.35,2.06,2.8,2.94,3.15.87a73,73,0,0,0-.42-26.77,71,71,0,0,0-3.87-12.75c-.85-2.09-1.79-4.15-2.83-6.15a28.26,28.26,0,0,0-3.36-5.66,5.38,5.38,0,0,0-4.38-1.69,2.36,2.36,0,0,0-1.94,3.62c.94,1.88,3.75.23,2.81-1.64Z"/><path class="cls-40" d="M1808.57,2440.8A98.28,98.28,0,0,0,1777,2496a95.75,95.75,0,0,0-1.72,18.2,1.63,1.63,0,0,0,3.26,0,95.12,95.12,0,0,1,20.06-58.18,92.79,92.79,0,0,1,12.28-12.94c1.58-1.38-.73-3.68-2.31-2.31Z"/><path class="cls-40" d="M1830.78,2462.48c-4.36-1.56-8.56,1-11.49,4.1-3.32,3.5-5.78,7.93-8.15,12.09A139.09,139.09,0,0,0,1795,2523c-.36,2.06,2.78,2.94,3.15.87a134.72,134.72,0,0,1,21-52c2.27-3.33,6.24-7.94,10.76-6.32,2,.71,2.83-2.44.87-3.15Z"/><path class="cls-40" d="M1861.16,2476.6c-3.24-2.39-7.31-1.7-10.6.19-3.73,2.13-6.4,5.42-8.89,8.84a114.25,114.25,0,0,0-18.15,38.93c-.51,2,2.63,2.91,3.14.87A110.54,110.54,0,0,1,1841.9,2491c2.21-3.32,4.5-6.78,7.54-9.42,2.72-2.37,6.73-4.64,10.07-2.17,1.69,1.25,3.32-1.58,1.65-2.81Z"/><path class="cls-40" d="M1885.11,2484c-9.69.52-16.75,8.2-22.51,15.22a133.07,133.07,0,0,0-16.39,25.25,137.27,137.27,0,0,0-6.66,15.88c-.69,2,2.46,2.84,3.15.87a129.72,129.72,0,0,1,12.19-25.66,126.07,126.07,0,0,1,8.26-11.85,81.28,81.28,0,0,1,9.14-10.21c3.57-3.24,7.88-6,12.82-6.24,2.09-.11,2.1-3.37,0-3.26Z"/></g><path class="cls-26" d="M1604.7,630.6c-4.94-35.49-25.9-19.34-25.93-9.21s6.11,40.45,19.16,38.05S1604.7,630.6,1604.7,630.6Z"/><path class="cls-3" d="M1621.6,685.68c5.58,75.59-5.83,106.36-16.66,114.93,13.88,22.16,47.55,44.15,47.55,44.15s56.4-47.48,73.19-50.74c-16-20.59-22.2-54.37-17.14-132.72C1721.08,544.27,1621.6,685.68,1621.6,685.68Z"/><path class="cls-26" d="M1707,728.5c-22.87,12.34-58.69,25.44-81.33,20.77-.35-9.14-1-19.81-1.79-32.22,11.45-5.15,12.44,2.26,22.81,5.23,10.56,3,15.83-2.26,33.18-12.82,15.22-9.27,15.91-15.61,27.33-21.63C1706.6,703.08,1706.54,716.58,1707,728.5Z"/><path class="cls-6" d="M1583.76,549.35c-4.49,28.26-2.41,41.91,6.78,50s19.79-46.27,11.28-50S1583.76,549.35,1583.76,549.35Z"/><path class="cls-3" d="M1596.18,534.12c-22.36,85.85-19.68,214.2,62.45,183.6s70.42-88.58,72.83-107.9,6.44-63.62-12.88-75.7S1601.16,515,1596.18,534.12Z"/><path class="cls-3" d="M1596.18,534.12c-22.36,85.85-19.68,214.2,62.45,183.6s70.42-88.58,72.83-107.9,6.44-63.62-12.88-75.7S1601.16,515,1596.18,534.12Z"/><path class="cls-26" d="M1731.46,609.82c-2.41,19.32,9.31,77.3-72.83,107.9-19.63,7.31-34.71,5.55-46-2.55a80.79,80.79,0,0,0,11.42-2.61c83.91-25.34,75.87-83.94,79.51-103.08s10.44-63.08-8.08-76.35c-4.81-3.45-14.93-6.89-27.4-9.76,22.12,1.84,42.71,5.88,50.51,10.75C1737.9,546.2,1733.88,590.49,1731.46,609.82Z"/><path class="cls-6" d="M1681.27,565.93c-102.34-1.88-111.39-22.14-117-47.91,0,0,8.86,8.05,20.13,5.64-4.09-13.89-4.09-30-.67-36.28,16.1,40.3,28.3-6.95,86.36,2.66,113.54,18.79,92.34,69.5,55.3,71.11C1714.44,561.62,1681.27,565.93,1681.27,565.93Z"/><path class="cls-6" d="M1698.45,551.84c-14.86,46.85,16.1,52.46,18.52,68.91s2.41,23.69,0,43c42.68-26.57,61.49-76.07,58.1-97.84s-5-30.2-24.28-31.81S1707.66,535.51,1698.45,551.84Z"/><path class="cls-6" d="M1615.87,620.91c-.65,6.08-4.66,10.64-9,10.18s-7.29-5.75-6.65-11.83,4.66-10.64,9-10.19S1616.51,614.83,1615.87,620.91Z"/><path class="cls-6" d="M1669.73,626.6c-.64,6.08-4.66,10.64-9,10.18s-7.29-5.75-6.65-11.83,4.66-10.65,9-10.19S1670.37,620.51,1669.73,626.6Z"/><path class="cls-26" d="M1627,611a36.26,36.26,0,0,1,5.17,12.77,30.93,30.93,0,0,1,.6,7.09,22,22,0,0,1-1.46,7.24,16.55,16.55,0,0,1-4.32,6.26l-.35.32-.29.26-.59.5c-.36.36-.75.7-1.08,1.06a11.8,11.8,0,0,0-1.75,2.27,5,5,0,0,0-.27,5.05,13.54,13.54,0,0,0,4.34,4.69,11.15,11.15,0,0,1-6.16-3.47,7.14,7.14,0,0,1-1.66-3.66,8.24,8.24,0,0,1,.55-4.08,13.17,13.17,0,0,1,1.94-3.35c.37-.5.78-1,1.19-1.42l.64-.65.32-.32.24-.27a14.53,14.53,0,0,0,3.1-4.85c1.46-3.66,1.74-7.93,1.53-12.23A101.63,101.63,0,0,0,1627,611Z"/><path class="cls-6" d="M1723.25,663.77c-10.64-10.87,12.24-55.56-13.93-65-.94,36-9.67,77.1-30.2,91.19s-12.48-9.48-14.16-17.72-21.51-6.77-38-6.44-26.45-6.34-26.09,6.89c.32,12.12-2,18-4.84,21.3-3.83-8.72-7.18-21.56-7.18-21.56-2.45,14.61-2.47,24-.71,30,6,31,42.68,46.7,81.53,33S1733.88,674.64,1723.25,663.77Z"/><path class="cls-6" d="M1599.8,598.75a9,9,0,0,1,5.15-2.37,13.15,13.15,0,0,1,5.65.59,15.06,15.06,0,0,1,4.83,2.73,11.35,11.35,0,0,1,3.3,4.48,49.73,49.73,0,0,1-5.07-1.43l-4.48-1.53c-1.46-.5-2.89-.92-4.39-1.34S1601.72,599.2,1599.8,598.75Z"/><path class="cls-6" d="M1644.5,604.18a29,29,0,0,1,8.07-4.49,39.77,39.77,0,0,1,9-2.21,33.92,33.92,0,0,1,9.33.17,21.36,21.36,0,0,1,8.65,3.49c-3.14-.06-6-.11-8.88,0s-5.71.43-8.57.76-5.71.75-8.62,1.17S1647.6,603.91,1644.5,604.18Z"/><path class="cls-26" d="M1713.62,636.83c13.69-35.43,31.4-13.69,29-3.22s-16.11,40.26-29,34.62S1713.62,636.83,1713.62,636.83Z"/><path class="cls-22" d="M1613.88,674.68c8.41,3.88,24,1.28,37.79-1.95C1647.33,708.64,1612.91,718,1613.88,674.68Z"/><ellipse class="cls-26" cx="1675.47" cy="645.23" rx="9.46" ry="6.64"/><path class="cls-26" d="M1602.4,642.31c-.89,3.57-5.71,5.43-10.78,4.18s-8.47-5.16-7.59-8.72,5.71-5.43,10.78-4.18S1603.28,638.75,1602.4,642.31Z"/><path class="cls-41" d="M1086.91,2142.47c-33-75.23-5.54-160,61.39-189.41s147.94,7.79,181,83"/><circle class="cls-41" cx="1116.14" cy="1879.81" r="62.52" transform="translate(-1068.09 1972.57) rotate(-61.73)"/><path class="cls-41" d="M3065.58,788.72c22.76-90.78,106.67-148,187.43-127.72s127.77,110.25,105,201"/><circle class="cls-41" cx="3275.16" cy="572.62" r="71.21" transform="translate(554.37 2483.61) rotate(-45)"/><circle class="cls-5" cx="3384.19" cy="1369.16" r="193.42" transform="translate(23.06 2794) rotate(-45)"/><path class="cls-11" d="M3507.32,1360c-25.33,81.22-159.91,111.48-159.91,111.48s-87.12-99.42-61.78-180.64,111.77,22.09,111.77,22.09S3532.66,1278.76,3507.32,1360Z"/><path class="cls-41" d="M1070.84,1199c67.79,82.55,55.82,204.43-26.73,272.22S839.67,1527,771.88,1444.46,716.06,1240,798.62,1172.23,1003.05,1116.41,1070.84,1199Zm-37.93,151.89,29.54-24.39a14.11,14.11,0,0,0,1.9-19.87L1006.9,1237a14.11,14.11,0,0,0-19.86-1.9l-29.54,24.38c-6,5-6.87,13.86-.07,22.63l57.45,69.6C1018,1355,1026.9,1355.82,1032.91,1350.86Zm-83-51.58s-20.28-39.58-91.68-42.44a29.87,29.87,0,0,1-20.87-9.43c-17.68-19.08-18-11.36-23.06-8.73-5.72,3-24.52,42.73,44.07,68.64l-49.42,40.78c-13.1,10.82,8.73,39.54,20.7,29.66,0,0-6.89,35.11,22.93,23.2-2,16.65,6.6,26.29,21,22.44-.21,15.76,10.26,26.16,25.57,17.79l91.57-75.57c2.86-6.63,3.76-13.28.16-17.55Z"/></g></svg>